name rise44.8762peak52.3436fall86.788.mot
datacolumns 19
datarows 20
range 16.93326500000000 16.96493200000000
endheader
time	ground_force1_vx	ground_force1_vy	ground_force1_vz	ground_force1_px	ground_force1_py	ground_force1_pz	ground_force2_vx	ground_force2_vy	ground_force2_vz	ground_force2_px	ground_force2_py	ground_force2_pz	ground_torque1_x	ground_torque1_y	ground_torque1_z	ground_torque2_x	ground_torque2_y	ground_torque2_z	
16.93326500000000	-7.36050000000000	40.02515700000000	-11.95395100000000	0.28066100000000	0.00000000000000	0.08849600000000	-50.85926200000000	795.77190700000006	-55.46205900000000	0.07659600000000	0.00000000000000	-0.08463200000000	0.00000000000000	-7.13972000000000	0.00000000000000	0.00000000000000	-14.40684400000000	0.00000000000000	
16.93493300000000	-8.07959200000000	46.75853600000000	-13.45164700000000	0.28308700000000	0.00000000000000	0.08966500000000	-51.62246000000000	793.66308800000002	-55.06577500000000	0.07567600000000	0.00000000000000	-0.08453400000000	0.00000000000000	-8.09198800000000	0.00000000000000	0.00000000000000	-14.39520400000000	0.00000000000000	
16.93660300000000	-8.65978700000000	53.53819300000000	-14.81637800000000	0.28542900000000	0.00000000000000	0.09074000000000	-52.39876700000000	791.43710999999996	-54.64290500000000	0.07475900000000	0.00000000000000	-0.08443200000000	0.00000000000000	-8.98005100000000	0.00000000000000	0.00000000000000	-14.38622000000000	0.00000000000000	
16.93826600000000	-9.08037100000000	60.27448400000000	-16.01670500000000	0.28770300000000	0.00000000000000	0.09173200000000	-53.18762900000000	789.09155399999997	-54.19338500000000	0.07384400000000	0.00000000000000	-0.08432600000000	0.00000000000000	-9.78494300000000	0.00000000000000	0.00000000000000	-14.37987900000000	0.00000000000000	
16.93993900000000	-9.32867400000000	66.90095200000000	-17.03178500000000	0.28991900000000	0.00000000000000	0.09265300000000	-53.98840100000000	786.62393099999997	-53.71719100000000	0.07293400000000	0.00000000000000	-0.08421600000000	0.00000000000000	-10.49365300000000	0.00000000000000	0.00000000000000	-14.37615300000000	0.00000000000000	
16.94159900000000	-9.39997200000000	73.37625600000000	-17.85151000000000	0.29208700000000	0.00000000000000	0.09351100000000	-54.80034900000000	784.03169000000003	-53.21434600000000	0.07202900000000	0.00000000000000	-0.08410300000000	0.00000000000000	-11.09930800000000	0.00000000000000	0.00000000000000	-14.37499400000000	0.00000000000000	
16.94326900000000	-9.29677100000000	79.68370600000000	-18.47575100000000	0.29421200000000	0.00000000000000	0.09431400000000	-55.62264800000000	781.31222000000002	-52.68491800000000	0.07112900000000	0.00000000000000	-0.08398500000000	0.00000000000000	-11.60082700000000	0.00000000000000	0.00000000000000	-14.37633900000000	0.00000000000000	
16.94493100000000	-9.02761300000000	85.82885700000000	-18.91291300000000	0.29630100000000	0.00000000000000	0.09506800000000	-56.45438100000000	778.46285699999999	-52.12902000000000	0.07023600000000	0.00000000000000	-0.08386300000000	0.00000000000000	-12.00215600000000	0.00000000000000	0.00000000000000	-14.38010500000000	0.00000000000000	
16.94659900000000	-8.60560100000000	91.83568000000000	-19.17803700000000	0.29835700000000	0.00000000000000	0.09577800000000	-57.29454000000000	775.48089000000004	-51.54681400000000	0.06935100000000	0.00000000000000	-0.08373700000000	0.00000000000000	-12.31123300000000	0.00000000000000	0.00000000000000	-14.38619400000000	0.00000000000000	
16.94826400000000	-8.04680700000000	97.74189400000000	-19.29069400000000	0.30038300000000	0.00000000000000	0.09644800000000	-58.14202700000000	772.36356899999998	-50.93851000000000	0.06847300000000	0.00000000000000	-0.08360700000000	0.00000000000000	-12.53878500000000	0.00000000000000	0.00000000000000	-14.39448500000000	0.00000000000000	
16.94993400000000	-7.36871900000000	103.59397000000000	-19.27286600000000	0.30237900000000	0.00000000000000	0.09708400000000	-58.99565300000000	769.10811300000000	-50.30436900000000	0.06760500000000	0.00000000000000	-0.08347300000000	0.00000000000000	-12.69711800000000	0.00000000000000	0.00000000000000	-14.40484400000000	0.00000000000000	
16.95159900000000	-6.58883600000000	109.44229000000000	-19.14700600000000	0.30434800000000	0.00000000000000	0.09768600000000	-59.85413800000000	765.71172100000001	-49.64470300000000	0.06674600000000	0.00000000000000	-0.08333500000000	0.00000000000000	-12.79897300000000	0.00000000000000	0.00000000000000	-14.41711500000000	0.00000000000000	
16.95326800000000	-5.72351600000000	115.33681000000000	-18.93439100000000	0.30628900000000	0.00000000000000	0.09826000000000	-60.71611400000000	762.17157499999996	-48.95987200000000	0.06589800000000	0.00000000000000	-0.08319200000000	0.00000000000000	-12.85654200000000	0.00000000000000	0.00000000000000	-14.43112500000000	0.00000000000000	
16.95493700000000	-4.78710200000000	121.32348000000000	-18.65384600000000	0.30820300000000	0.00000000000000	0.09880700000000	-61.58012600000000	758.48486000000003	-48.25029300000000	0.06506100000000	0.00000000000000	-0.08304600000000	0.00000000000000	-12.88069300000000	0.00000000000000	0.00000000000000	-14.44668400000000	0.00000000000000	
16.95660000000000	-3.79136700000000	127.44157300000001	-18.32088300000000	0.31008800000000	0.00000000000000	0.09932900000000	-62.44463400000000	754.64876700000002	-47.51643100000000	0.06423500000000	0.00000000000000	-0.08289500000000	0.00000000000000	-12.88041900000000	0.00000000000000	0.00000000000000	-14.46358500000000	0.00000000000000	
16.95827100000000	-2.74524400000000	133.72195400000001	-17.94723400000000	0.31194500000000	0.00000000000000	0.09982800000000	-63.30801300000000	750.66050700000005	-46.75880700000000	0.06342200000000	0.00000000000000	-0.08274000000000	0.00000000000000	-12.86252900000000	0.00000000000000	0.00000000000000	-14.48160000000000	0.00000000000000	
16.95993900000000	-1.65482800000000	140.18626699999999	-17.54075900000000	0.31377100000000	0.00000000000000	0.10030700000000	-64.16856100000000	746.51732700000002	-45.97799400000000	0.06262100000000	0.00000000000000	-0.08258100000000	0.00000000000000	-12.83155200000000	0.00000000000000	0.00000000000000	-14.50048900000000	0.00000000000000	
16.96159700000000	-0.52358700000000	146.84691500000000	-17.10565200000000	0.31556700000000	0.00000000000000	0.10076600000000	-65.02449500000000	742.21651899999995	-45.17461600000000	0.06183400000000	0.00000000000000	-0.08241800000000	0.00000000000000	-12.78982500000000	0.00000000000000	0.00000000000000	-14.51999300000000	0.00000000000000	
16.96326300000000	0.64725900000000	153.70770999999999	-16.64289200000000	0.31733000000000	0.00000000000000	0.10120700000000	-65.87396000000000	737.75543800000003	-44.34935200000000	0.06106000000000	0.00000000000000	-0.08225100000000	0.00000000000000	-12.73773700000000	0.00000000000000	0.00000000000000	-14.53983900000000	0.00000000000000	
16.96493200000000	1.85826200000000	160.76500799999999	-16.15084500000000	0.31905800000000	0.00000000000000	0.10163000000000	-66.71503000000000	733.13151400000004	-43.50293200000000	0.06030000000000	0.00000000000000	-0.08208000000000	0.00000000000000	-12.67406400000000	0.00000000000000	0.00000000000000	-14.55973800000000	0.00000000000000	
